<svg width="66" height="66" viewBox="0 0 66 66" fill="none" xmlns="http://www.w3.org/2000/svg">
<path d="M33 12C33.6962 12 34.3639 12.2766 34.8562 12.7688C35.3484 13.2611 35.625 13.9288 35.625 14.625V30.375H51.375C52.0712 30.375 52.7389 30.6516 53.2312 31.1438C53.7234 31.6361 54 32.3038 54 33C54 33.6962 53.7234 34.3639 53.2312 34.8562C52.7389 35.3484 52.0712 35.625 51.375 35.625H35.625V51.375C35.625 52.0712 35.3484 52.7389 34.8562 53.2312C34.3639 53.7234 33.6962 54 33 54C32.3038 54 31.6361 53.7234 31.1438 53.2312C30.6516 52.7389 30.375 52.0712 30.375 51.375V35.625H14.625C13.9288 35.625 13.2611 35.3484 12.7688 34.8562C12.2766 34.3639 12 33.6962 12 33C12 32.3038 12.2766 31.6361 12.7688 31.1438C13.2611 30.6516 13.9288 30.375 14.625 30.375H30.375V14.625C30.375 13.9288 30.6516 13.2611 31.1438 12.7688C31.6361 12.2766 32.3038 12 33 12Z" fill="#4C6C52"/>
</svg>
