<svg width="32" height="32" viewBox="0 0 32 32" fill="none" xmlns="http://www.w3.org/2000/svg">
<path d="M28.1533 14.0557H25.6012V11.5037C25.6012 11.1528 25.3141 10.8656 24.9632 10.8656H23.6872C23.3363 10.8656 23.0492 11.1528 23.0492 11.5037V14.0557H20.4971C20.1462 14.0557 19.859 14.3429 19.859 14.6938V15.9698C19.859 16.3207 20.1462 16.6078 20.4971 16.6078H23.0492V19.1599C23.0492 19.5108 23.3363 19.7979 23.6872 19.7979H24.9632C25.3141 19.7979 25.6012 19.5108 25.6012 19.1599V16.6078H28.1533C28.5042 16.6078 28.7913 16.3207 28.7913 15.9698V14.6938C28.7913 14.3429 28.5042 14.0557 28.1533 14.0557ZM12.2028 15.9698C15.0221 15.9698 17.307 13.6849 17.307 10.8656C17.307 8.04639 15.0221 5.76147 12.2028 5.76147C9.38354 5.76147 7.09863 8.04639 7.09863 10.8656C7.09863 13.6849 9.38354 15.9698 12.2028 15.9698ZM15.7757 17.2458H15.1098C14.2245 17.6526 13.2396 17.8839 12.2028 17.8839C11.166 17.8839 10.1851 17.6526 9.29582 17.2458H8.62988C5.67106 17.2458 3.27051 19.6464 3.27051 22.6052V24.2641C3.27051 25.3208 4.12785 26.1781 5.18457 26.1781H19.221C20.2778 26.1781 21.1351 25.3208 21.1351 24.2641V22.6052C21.1351 19.6464 18.7345 17.2458 15.7757 17.2458Z" fill="#F0EEE2"/>
</svg>
