<svg width="18" height="19" viewBox="0 0 18 19" fill="none" xmlns="http://www.w3.org/2000/svg">
<path d="M17.7552 15.9089L14.2499 12.4036C14.0917 12.2454 13.8772 12.1575 13.6522 12.1575H13.0791C14.0495 10.9164 14.6261 9.35532 14.6261 7.65715C14.6261 3.6174 11.3528 0.344116 7.31303 0.344116C3.27329 0.344116 0 3.6174 0 7.65715C0 11.6969 3.27329 14.9702 7.31303 14.9702C9.01121 14.9702 10.5723 14.3936 11.8134 13.4232V13.9963C11.8134 14.2213 11.9013 14.4358 12.0595 14.594L15.5648 18.0993C15.8953 18.4298 16.4297 18.4298 16.7567 18.0993L17.7517 17.1043C18.0822 16.7738 18.0822 16.2394 17.7552 15.9089ZM7.31303 12.1575C4.82731 12.1575 2.81271 10.1464 2.81271 7.65715C2.81271 5.17142 4.82379 3.15682 7.31303 3.15682C9.79876 3.15682 11.8134 5.16791 11.8134 7.65715C11.8134 10.1429 9.80228 12.1575 7.31303 12.1575Z" fill="#959595"/>
</svg>
