<svg width="19" height="19" viewBox="0 0 19 19" fill="none" xmlns="http://www.w3.org/2000/svg">
<circle cx="9.5" cy="9.5" r="9.5" fill="#353070"/>
<path d="M9.5 5C6.46039 5 4 7.45988 4 10.5V11.5312C4 11.6589 4.03555 11.7841 4.10267 11.8927C4.1698 12.0013 4.26584 12.0891 4.38004 12.1462L4.68905 12.3007C4.73225 13.5917 5.79225 14.625 7.09375 14.625H7.60938C7.89415 14.625 8.125 14.3942 8.125 14.1094V10.3281C8.125 10.0433 7.89415 9.8125 7.60938 9.8125H7.09375C6.42039 9.8125 5.81176 10.0892 5.375 10.535V10.5C5.375 8.22547 7.22547 6.375 9.5 6.375C11.7745 6.375 13.625 8.22547 13.625 10.5V10.535C13.1882 10.0892 12.5796 9.8125 11.9062 9.8125H11.3906C11.1058 9.8125 10.875 10.0433 10.875 10.3281V14.1094C10.875 14.3942 11.1058 14.625 11.3906 14.625H11.9062C13.2078 14.625 14.2677 13.5916 14.311 12.3007L14.6199 12.1462C14.7341 12.0891 14.8302 12.0013 14.8973 11.8927C14.9644 11.7841 15 11.6589 15 11.5312V10.5C15 7.46041 12.5401 5 9.5 5Z" fill="white"/>
</svg>
