<svg width="19" height="19" viewBox="0 0 19 19" fill="none" xmlns="http://www.w3.org/2000/svg">
<path d="M9.5 19C14.7473 19 19 14.7473 19 9.5C19 4.25273 14.7473 0 9.5 0C4.25273 0 0 4.25273 0 9.5C0 14.7473 4.25273 19 9.5 19ZM8.01562 12.4688H8.90625V10.0938H8.01562C7.52207 10.0938 7.125 9.69668 7.125 9.20312C7.125 8.70957 7.52207 8.3125 8.01562 8.3125H9.79688C10.2904 8.3125 10.6875 8.70957 10.6875 9.20312V12.4688H10.9844C11.4779 12.4688 11.875 12.8658 11.875 13.3594C11.875 13.8529 11.4779 14.25 10.9844 14.25H8.01562C7.52207 14.25 7.125 13.8529 7.125 13.3594C7.125 12.8658 7.52207 12.4688 8.01562 12.4688ZM9.5 7.125C8.84316 7.125 8.3125 6.59434 8.3125 5.9375C8.3125 5.28066 8.84316 4.75 9.5 4.75C10.1568 4.75 10.6875 5.28066 10.6875 5.9375C10.6875 6.59434 10.1568 7.125 9.5 7.125Z" fill="#398DEE" fill-opacity="0.47"/>
</svg>
