<svg width="19" height="19" viewBox="0 0 19 19" fill="none" xmlns="http://www.w3.org/2000/svg">
<circle cx="9.5" cy="9.5" r="9.5" fill="#5AA854"/>
<path d="M15.725 8.65625H14.625V7.53125C14.625 7.37656 14.5013 7.25 14.35 7.25H13.8C13.6488 7.25 13.525 7.37656 13.525 7.53125V8.65625H12.425C12.2738 8.65625 12.15 8.78281 12.15 8.9375V9.5C12.15 9.65469 12.2738 9.78125 12.425 9.78125H13.525V10.9062C13.525 11.0609 13.6488 11.1875 13.8 11.1875H14.35C14.5013 11.1875 14.625 11.0609 14.625 10.9062V9.78125H15.725C15.8763 9.78125 16 9.65469 16 9.5V8.9375C16 8.78281 15.8763 8.65625 15.725 8.65625ZM8.85 9.5C10.0652 9.5 11.05 8.49277 11.05 7.25C11.05 6.00723 10.0652 5 8.85 5C7.63484 5 6.65 6.00723 6.65 7.25C6.65 8.49277 7.63484 9.5 8.85 9.5ZM10.39 10.0625H10.103C9.72141 10.2418 9.29688 10.3438 8.85 10.3438C8.40313 10.3438 7.98031 10.2418 7.59703 10.0625H7.31C6.03469 10.0625 5 11.1207 5 12.425V13.1562C5 13.6221 5.36953 14 5.825 14H11.875C12.3305 14 12.7 13.6221 12.7 13.1562V12.425C12.7 11.1207 11.6653 10.0625 10.39 10.0625Z" fill="white"/>
</svg>
