<svg width="19" height="19" viewBox="0 0 19 19" fill="none" xmlns="http://www.w3.org/2000/svg">
<circle cx="9.5" cy="9.5" r="9.5" fill="#398DEE"/>
<g clip-path="url(#clip0_519_238)">
<path d="M14.9727 4.51454C15 4.44639 15.0067 4.37173 14.9919 4.29983C14.9772 4.22792 14.9416 4.16192 14.8897 4.11002C14.8378 4.05811 14.7718 4.02258 14.6999 4.00783C14.628 3.99308 14.5534 3.99976 14.4852 4.02704L3.57496 8.39129H3.57421L3.23521 8.52629C3.171 8.5519 3.11512 8.59476 3.07374 8.65014C3.03237 8.70551 3.0071 8.77125 3.00074 8.84008C2.99437 8.90891 3.00716 8.97817 3.03769 9.04019C3.06821 9.10221 3.11528 9.15459 3.17371 9.19154L3.48121 9.38654L3.48196 9.38804L7.22821 11.7715L9.61171 15.5178L9.61321 15.5193L9.80821 15.8268C9.84528 15.885 9.89768 15.9318 9.95966 15.9622C10.0216 15.9925 10.0908 16.0051 10.1595 15.9987C10.2282 15.9923 10.2938 15.967 10.349 15.9257C10.4043 15.8844 10.4471 15.8286 10.4727 15.7645L14.9727 4.51454ZM13.598 5.93204L7.97746 11.5525L7.81621 11.299C7.78666 11.2525 7.74723 11.2131 7.70071 11.1835L7.44721 11.0223L13.0677 5.40179L13.9512 5.04854L13.5987 5.93204H13.598Z" fill="white"/>
</g>
<defs>
<clipPath id="clip0_519_238">
<rect width="12" height="12" fill="white" transform="translate(3 4)"/>
</clipPath>
</defs>
</svg>
