<svg width="19" height="19" viewBox="0 0 19 19" fill="none" xmlns="http://www.w3.org/2000/svg">
<path d="M17.9095 11.4567L16.3373 10.5489C16.496 9.69268 16.496 8.81436 16.3373 7.95818L17.9095 7.05034C18.0903 6.94701 18.1715 6.73296 18.1124 6.53368C17.7028 5.21989 17.0053 4.03157 16.0938 3.04253C15.9535 2.89123 15.7247 2.85432 15.5476 2.95765L13.9755 3.8655C13.3149 3.29717 12.5546 2.85801 11.7317 2.57016V0.75816C11.7317 0.551496 11.5878 0.370665 11.3848 0.32638C10.0304 0.0237646 8.64279 0.0385263 7.35483 0.32638C7.15186 0.370665 7.00793 0.551496 7.00793 0.75816V2.57385C6.18866 2.86539 5.42843 3.30455 4.76415 3.86919L3.19572 2.96134C3.01489 2.85801 2.78977 2.89123 2.64954 3.04622C1.738 4.03157 1.04051 5.21989 0.630875 6.53737C0.568137 6.73665 0.653017 6.9507 0.833848 7.05403L2.40597 7.96187C2.24728 8.81805 2.24728 9.69637 2.40597 10.5526L0.833848 11.4604C0.653017 11.5637 0.571828 11.7778 0.630875 11.9771C1.04051 13.2908 1.738 14.4792 2.64954 15.4682C2.78977 15.6195 3.01858 15.6564 3.19572 15.5531L4.76784 14.6452C5.42843 15.2136 6.18866 15.6527 7.01162 15.9406V17.7563C7.01162 17.9629 7.15555 18.1438 7.35852 18.188C8.71291 18.4907 10.1005 18.4759 11.3885 18.188C11.5914 18.1438 11.7354 17.9629 11.7354 17.7563V15.9406C12.5546 15.649 13.3149 15.2099 13.9792 14.6452L15.5513 15.5531C15.7321 15.6564 15.9572 15.6232 16.0975 15.4682C17.009 14.4829 17.7065 13.2945 18.1161 11.9771C18.1715 11.7741 18.0903 11.56 17.9095 11.4567ZM9.36981 12.2059C7.74233 12.2059 6.41747 10.881 6.41747 9.25352C6.41747 7.62604 7.74233 6.30118 9.36981 6.30118C10.9973 6.30118 12.3221 7.62604 12.3221 9.25352C12.3221 10.881 10.9973 12.2059 9.36981 12.2059Z" fill="#959595"/>
</svg>
