<svg width="19" height="19" viewBox="0 0 19 19" fill="none" xmlns="http://www.w3.org/2000/svg">
<circle cx="9.5" cy="9.5" r="9.5" fill="#F1A026"/>
<g clip-path="url(#clip0_519_207)">
<path d="M6.85037 4.10038C6.88236 4.06847 6.92031 4.04319 6.96207 4.02597C7.00383 4.00874 7.04858 3.99992 7.09375 4H11.9062C11.9974 4 12.0849 4.03622 12.1493 4.10068C12.2138 4.16515 12.25 4.25258 12.25 4.34375C12.25 4.81125 12.0149 5.15088 11.8059 5.36056C11.7193 5.4465 11.634 5.51456 11.5625 5.56544V8.61175L11.6161 8.64475C11.7557 8.73206 11.9434 8.86063 12.1324 9.02631C12.4975 9.34531 12.9375 9.86231 12.9375 10.5313C12.9375 10.6224 12.9013 10.7099 12.8368 10.7743C12.7724 10.8388 12.6849 10.875 12.5938 10.875H9.84375V13.9688C9.84375 14.1585 9.68975 15 9.5 15C9.31025 15 9.15625 14.1585 9.15625 13.9688V10.875H6.40625C6.31508 10.875 6.22765 10.8388 6.16318 10.7743C6.09872 10.7099 6.0625 10.6224 6.0625 10.5313C6.0625 9.86231 6.5025 9.34531 6.86688 9.02631C7.04473 8.87188 7.23566 8.73317 7.4375 8.61175V5.56544C7.3508 5.50405 7.26939 5.43552 7.19412 5.36056C6.98512 5.15088 6.75 4.81056 6.75 4.34375C6.74992 4.29858 6.75874 4.25383 6.77597 4.21207C6.79319 4.17031 6.81847 4.13236 6.85037 4.10038Z" fill="white"/>
</g>
<defs>
<clipPath id="clip0_519_207">
<rect width="11" height="11" fill="white" transform="translate(4 4)"/>
</clipPath>
</defs>
</svg>
