<svg width="19" height="19" viewBox="0 0 19 19" fill="none" xmlns="http://www.w3.org/2000/svg">
<path d="M9.5 17.8125C7.29539 17.8125 5.18107 16.9367 3.62217 15.3778C2.06328 13.8189 1.1875 11.7046 1.1875 9.5C1.1875 7.29539 2.06328 5.18107 3.62217 3.62217C5.18107 2.06328 7.29539 1.1875 9.5 1.1875C11.7046 1.1875 13.8189 2.06328 15.3778 3.62217C16.9367 5.18107 17.8125 7.29539 17.8125 9.5C17.8125 11.7046 16.9367 13.8189 15.3778 15.3778C13.8189 16.9367 11.7046 17.8125 9.5 17.8125ZM9.5 19C12.0196 19 14.4359 17.9991 16.2175 16.2175C17.9991 14.4359 19 12.0196 19 9.5C19 6.98044 17.9991 4.56408 16.2175 2.78249C14.4359 1.00089 12.0196 0 9.5 0C6.98044 0 4.56408 1.00089 2.78249 2.78249C1.00089 4.56408 0 6.98044 0 9.5C0 12.0196 1.00089 14.4359 2.78249 16.2175C4.56408 17.9991 6.98044 19 9.5 19Z" fill="#8D8D8D"/>
<path d="M10.6043 7.82325L7.88494 8.16406L7.78757 8.61531L8.32194 8.71388C8.67107 8.797 8.73994 8.92288 8.66394 9.27081L7.78757 13.3891C7.55719 14.4543 7.91226 14.9554 8.74707 14.9554C9.39426 14.9554 10.1459 14.6561 10.4868 14.2453L10.5913 13.7513C10.3538 13.9603 10.007 14.0434 9.77663 14.0434C9.45007 14.0434 9.33132 13.8142 9.41563 13.4104L10.6043 7.82325ZM10.6874 5.34375C10.6874 5.65869 10.5623 5.96074 10.3396 6.18344C10.1169 6.40614 9.81489 6.53125 9.49994 6.53125C9.185 6.53125 8.88295 6.40614 8.66025 6.18344C8.43755 5.96074 8.31244 5.65869 8.31244 5.34375C8.31244 5.02881 8.43755 4.72676 8.66025 4.50406C8.88295 4.28136 9.185 4.15625 9.49994 4.15625C9.81489 4.15625 10.1169 4.28136 10.3396 4.50406C10.5623 4.72676 10.6874 5.02881 10.6874 5.34375Z" fill="#8D8D8D"/>
</svg>
