<svg width="19" height="19" viewBox="0 0 19 19" fill="none" xmlns="http://www.w3.org/2000/svg">
<circle cx="9.5" cy="9.5" r="9.5" fill="#B67D3D"/>
<path d="M9.44578 5C7.88681 5 6.87707 5.63873 6.08431 6.77785C5.9405 6.98449 5.98484 7.26781 6.18544 7.41992L7.02798 8.05877C7.23058 8.21238 7.51884 8.17646 7.67746 7.97775C8.16669 7.36484 8.52961 7.01195 9.2938 7.01195C9.89466 7.01195 10.6379 7.39865 10.6379 7.98131C10.6379 8.42178 10.2743 8.64799 9.68097 8.98061C8.98912 9.3685 8.07357 9.85123 8.07357 11.0588V11.25C8.07357 11.5089 8.28343 11.7188 8.54232 11.7188H9.95777C10.2167 11.7188 10.4265 11.5089 10.4265 11.25V11.1372C10.4265 10.3001 12.8732 10.2653 12.8732 8C12.8732 6.29406 11.1036 5 9.44578 5ZM9.25005 12.2941C8.50404 12.2941 7.8971 12.9011 7.8971 13.6471C7.8971 14.3931 8.50404 15 9.25005 15C9.99607 15 10.603 14.3931 10.603 13.6471C10.603 12.901 9.99607 12.2941 9.25005 12.2941Z" fill="white"/>
</svg>
