<svg width="19" height="19" viewBox="0 0 19 19" fill="none" xmlns="http://www.w3.org/2000/svg">
<circle cx="9.5" cy="9.5" r="9.5" fill="#46B5B2"/>
<path d="M9.5 14.2857C10.2096 14.2857 10.7851 13.7101 10.7851 13H8.21489C8.21489 13.7101 8.79045 14.2857 9.5 14.2857ZM13.827 11.2781C13.4389 10.8611 12.7127 10.2337 12.7127 8.17856C12.7127 6.61763 11.6182 5.36808 10.1425 5.06151V4.64286C10.1425 4.28788 9.85478 4 9.5 4C9.14522 4 8.85755 4.28788 8.85755 4.64286V5.06151C7.38179 5.36808 6.28733 6.61763 6.28733 8.17856C6.28733 10.2337 5.56111 10.8611 5.17298 11.2781C5.05245 11.4077 4.99901 11.5626 5.00001 11.7143C5.00222 12.0437 5.26077 12.3571 5.64488 12.3571H13.3551C13.7392 12.3571 13.998 12.0437 14 11.7143C14.001 11.5626 13.9476 11.4075 13.827 11.2781Z" fill="white"/>
</svg>
