<svg width="19" height="19" viewBox="0 0 19 19" fill="none" xmlns="http://www.w3.org/2000/svg">
<circle cx="9.5" cy="9.5" r="9.5" fill="#292929"/>
<path d="M12.6667 8.33333C12.6667 6.49167 10.7271 5 8.33333 5C5.93958 5 4 6.49167 4 8.33333C4 9.04792 4.29375 9.70625 4.79167 10.25C4.5125 10.8792 4.05208 11.3792 4.04583 11.3854C4 11.4333 3.9875 11.5042 4.01458 11.5667C4.04167 11.6292 4.1 11.6667 4.16667 11.6667C4.92917 11.6667 5.56042 11.4104 6.01458 11.1458C6.68542 11.4729 7.47917 11.6667 8.33333 11.6667C10.7271 11.6667 12.6667 10.175 12.6667 8.33333ZM15.2083 12.9167C15.7063 12.375 16 11.7146 16 11C16 9.60625 14.8854 8.4125 13.3063 7.91458C13.325 8.05208 13.3333 8.19167 13.3333 8.33333C13.3333 10.5396 11.0896 12.3333 8.33333 12.3333C8.10833 12.3333 7.88958 12.3167 7.67292 12.2937C8.32917 13.4917 9.87083 14.3333 11.6667 14.3333C12.5208 14.3333 13.3146 14.1417 13.9854 13.8125C14.4396 14.0771 15.0708 14.3333 15.8333 14.3333C15.9 14.3333 15.9604 14.2937 15.9854 14.2333C16.0125 14.1729 16 14.1021 15.9542 14.0521C15.9479 14.0458 15.4875 13.5479 15.2083 12.9167Z" fill="white"/>
</svg>
