<svg width="49" height="49" viewBox="0 0 49 49" fill="none" xmlns="http://www.w3.org/2000/svg">
<rect width="49" height="49" rx="3" fill="#253127"/>
<path d="M34.7882 11.1976C33.9886 11.1976 33.2219 11.5152 32.6565 12.0805C32.0912 12.6457 31.7736 13.4124 31.7736 14.2118C31.7736 15.0113 32.0912 15.7779 32.6565 16.3432C33.2219 16.9085 33.9886 17.2261 34.7882 17.2261C35.5877 17.2261 36.3545 16.9085 36.9198 16.3432C37.4852 15.7779 37.8028 15.0113 37.8028 14.2118C37.8028 13.4124 37.4852 12.6457 36.9198 12.0805C36.3545 11.5152 35.5877 11.1976 34.7882 11.1976ZM29.7638 14.2118C29.7637 13.0331 30.1781 11.8919 30.9344 10.9878C31.6908 10.0838 32.7411 9.47441 33.9014 9.26637C35.0617 9.05834 36.2583 9.26488 37.2817 9.84986C38.3051 10.4348 39.0902 11.361 39.4997 12.4663C39.9091 13.5716 39.9169 14.7857 39.5215 15.8961C39.1261 17.0066 38.3528 17.9426 37.3369 18.5406C36.321 19.1385 35.1272 19.3602 33.9643 19.1669C32.8014 18.9736 31.7435 18.3777 30.9757 17.4833L17.4743 23.7529C17.7847 24.7364 17.7847 25.7916 17.4743 26.7751L30.9757 33.0447C31.7873 32.1009 32.9205 31.492 34.1555 31.336C35.3905 31.1799 36.6395 31.4879 37.6604 32.2001C38.6813 32.9124 39.4014 33.9782 39.6812 35.1911C39.9609 36.404 39.7804 37.6775 39.1746 38.7649C38.5688 39.8522 37.5808 40.676 36.4021 41.0765C35.2235 41.4771 33.9381 41.4258 32.7951 40.9328C31.6521 40.4397 30.7328 39.5399 30.2155 38.4078C29.6981 37.2756 29.6195 35.9918 29.995 34.805L16.4936 28.5354C15.8252 29.3143 14.9343 29.8697 13.9408 30.1271C12.9472 30.3845 11.8987 30.3315 10.9361 29.9752C9.97363 29.6189 9.14333 28.9764 8.55696 28.1341C7.97058 27.2919 7.65625 26.2902 7.65625 25.264C7.65625 24.2378 7.97058 23.2361 8.55696 22.3939C9.14333 21.5516 9.97363 20.9091 10.9361 20.5528C11.8987 20.1965 12.9472 20.1435 13.9408 20.4009C14.9343 20.6583 15.8252 21.2137 16.4936 21.9926L29.995 15.723C29.8413 15.234 29.7633 14.7244 29.7638 14.2118ZM12.6811 22.2498C11.8816 22.2498 11.1148 22.5673 10.5495 23.1326C9.98412 23.6979 9.66652 24.4646 9.66652 25.264C9.66652 26.0634 9.98412 26.8301 10.5495 27.3954C11.1148 27.9607 11.8816 28.2782 12.6811 28.2782C13.4806 28.2782 14.2474 27.9607 14.8128 27.3954C15.3781 26.8301 15.6957 26.0634 15.6957 25.264C15.6957 24.4646 15.3781 23.6979 14.8128 23.1326C14.2474 22.5673 13.4806 22.2498 12.6811 22.2498ZM34.7882 33.3019C33.9886 33.3019 33.2219 33.6195 32.6565 34.1848C32.0912 34.7501 31.7736 35.5167 31.7736 36.3162C31.7736 37.1156 32.0912 37.8823 32.6565 38.4475C33.2219 39.0128 33.9886 39.3304 34.7882 39.3304C35.5877 39.3304 36.3545 39.0128 36.9198 38.4475C37.4852 37.8823 37.8028 37.1156 37.8028 36.3162C37.8028 35.5167 37.4852 34.7501 36.9198 34.1848C36.3545 33.6195 35.5877 33.3019 34.7882 33.3019Z" fill="#F0EEE2"/>
</svg>
